<mxfile host="Electron" modified="2024-06-11T06:22:51.299Z" agent="Mozilla/5.0 (Windows NT 10.0; Win64; x64) AppleWebKit/537.36 (KHTML, like Gecko) draw.io/23.1.5 Chrome/120.0.6099.109 Electron/28.1.0 Safari/537.36" etag="xtl9CsehVrQF_uWkMowI" version="23.1.5" type="device">
  <diagram name="Page-1" id="0783ab3e-0a74-02c8-0abd-f7b4e66b4bec">
    <mxGraphModel dx="2268" dy="868" grid="1" gridSize="10" guides="1" tooltips="1" connect="1" arrows="1" fold="1" page="1" pageScale="1" pageWidth="850" pageHeight="1100" background="none" math="0" shadow="0">
      <root>
        <mxCell id="0" />
        <mxCell id="1" parent="0" />
        <mxCell id="1c1d494c118603dd-1" value="Отправка сообщений" style="swimlane;html=1;childLayout=stackLayout;startSize=20;rounded=0;shadow=0;comic=0;labelBackgroundColor=none;strokeWidth=1;fontFamily=Verdana;fontSize=12;align=center;" parent="1" vertex="1">
          <mxGeometry x="-20" y="40" width="810" height="460" as="geometry" />
        </mxCell>
        <mxCell id="1c1d494c118603dd-2" value="Пользовтель" style="swimlane;html=1;startSize=20;" parent="1c1d494c118603dd-1" vertex="1">
          <mxGeometry y="20" width="310" height="440" as="geometry" />
        </mxCell>
        <mxCell id="hFCzdbqGhVaaB0-jaRCJ-17" style="edgeStyle=orthogonalEdgeStyle;rounded=0;orthogonalLoop=1;jettySize=auto;html=1;entryX=0.5;entryY=0;entryDx=0;entryDy=0;" parent="1c1d494c118603dd-2" source="60571a20871a0731-4" target="hFCzdbqGhVaaB0-jaRCJ-9" edge="1">
          <mxGeometry relative="1" as="geometry" />
        </mxCell>
        <mxCell id="60571a20871a0731-4" value="" style="ellipse;whiteSpace=wrap;html=1;rounded=0;shadow=0;comic=0;labelBackgroundColor=none;strokeWidth=1;fillColor=#000000;fontFamily=Verdana;fontSize=12;align=center;" parent="1c1d494c118603dd-2" vertex="1">
          <mxGeometry x="155" y="20" width="40" height="40" as="geometry" />
        </mxCell>
        <mxCell id="60571a20871a0731-5" value="" style="shape=mxgraph.bpmn.shape;html=1;verticalLabelPosition=bottom;labelBackgroundColor=#ffffff;verticalAlign=top;perimeter=ellipsePerimeter;outline=end;symbol=terminate;rounded=0;shadow=0;comic=0;strokeWidth=1;fontFamily=Verdana;fontSize=12;align=center;" parent="1c1d494c118603dd-2" vertex="1">
          <mxGeometry x="155" y="370" width="40" height="40" as="geometry" />
        </mxCell>
        <mxCell id="5yDm0B6Qs0zUq6zuKv2j-11" value="Отправить сообщение" style="rounded=1;whiteSpace=wrap;html=1;shadow=0;comic=0;labelBackgroundColor=none;strokeWidth=1;fontFamily=Verdana;fontSize=12;align=center;arcSize=50;" parent="1c1d494c118603dd-2" vertex="1">
          <mxGeometry x="112.5" y="160" width="125" height="30" as="geometry" />
        </mxCell>
        <mxCell id="hFCzdbqGhVaaB0-jaRCJ-15" style="edgeStyle=orthogonalEdgeStyle;rounded=0;orthogonalLoop=1;jettySize=auto;html=1;entryX=0.5;entryY=0;entryDx=0;entryDy=0;" parent="1c1d494c118603dd-2" source="hFCzdbqGhVaaB0-jaRCJ-4" target="hFCzdbqGhVaaB0-jaRCJ-5" edge="1">
          <mxGeometry relative="1" as="geometry" />
        </mxCell>
        <mxCell id="hFCzdbqGhVaaB0-jaRCJ-4" value="Обновить представление" style="rounded=1;whiteSpace=wrap;html=1;shadow=0;comic=0;labelBackgroundColor=none;strokeWidth=1;fontFamily=Verdana;fontSize=12;align=center;arcSize=50;" parent="1c1d494c118603dd-2" vertex="1">
          <mxGeometry x="112.5" y="230" width="125" height="30" as="geometry" />
        </mxCell>
        <mxCell id="hFCzdbqGhVaaB0-jaRCJ-7" value="Нет" style="edgeStyle=orthogonalEdgeStyle;rounded=0;orthogonalLoop=1;jettySize=auto;html=1;entryX=0.5;entryY=0;entryDx=0;entryDy=0;" parent="1c1d494c118603dd-2" source="hFCzdbqGhVaaB0-jaRCJ-5" target="60571a20871a0731-5" edge="1">
          <mxGeometry relative="1" as="geometry" />
        </mxCell>
        <mxCell id="hFCzdbqGhVaaB0-jaRCJ-10" style="edgeStyle=orthogonalEdgeStyle;rounded=0;orthogonalLoop=1;jettySize=auto;html=1;entryX=0;entryY=0.25;entryDx=0;entryDy=0;" parent="1c1d494c118603dd-2" source="hFCzdbqGhVaaB0-jaRCJ-5" target="hFCzdbqGhVaaB0-jaRCJ-9" edge="1">
          <mxGeometry relative="1" as="geometry">
            <Array as="points">
              <mxPoint x="93" y="320" />
              <mxPoint x="93" y="108" />
            </Array>
          </mxGeometry>
        </mxCell>
        <mxCell id="hFCzdbqGhVaaB0-jaRCJ-11" value="Да" style="edgeLabel;html=1;align=center;verticalAlign=middle;resizable=0;points=[];" parent="hFCzdbqGhVaaB0-jaRCJ-10" vertex="1" connectable="0">
          <mxGeometry x="0.1769" relative="1" as="geometry">
            <mxPoint as="offset" />
          </mxGeometry>
        </mxCell>
        <mxCell id="hFCzdbqGhVaaB0-jaRCJ-5" value="" style="rhombus;whiteSpace=wrap;html=1;" parent="1c1d494c118603dd-2" vertex="1">
          <mxGeometry x="155" y="300" width="40" height="40" as="geometry" />
        </mxCell>
        <mxCell id="hFCzdbqGhVaaB0-jaRCJ-6" value="Напсать другое сообщение?" style="text;html=1;align=center;verticalAlign=middle;whiteSpace=wrap;rounded=0;" parent="1c1d494c118603dd-2" vertex="1">
          <mxGeometry x="200" y="305" width="60" height="30" as="geometry" />
        </mxCell>
        <mxCell id="hFCzdbqGhVaaB0-jaRCJ-12" style="edgeStyle=orthogonalEdgeStyle;rounded=0;orthogonalLoop=1;jettySize=auto;html=1;" parent="1c1d494c118603dd-2" source="hFCzdbqGhVaaB0-jaRCJ-9" target="5yDm0B6Qs0zUq6zuKv2j-11" edge="1">
          <mxGeometry relative="1" as="geometry" />
        </mxCell>
        <mxCell id="hFCzdbqGhVaaB0-jaRCJ-9" value="Написать сообщение" style="rounded=1;whiteSpace=wrap;html=1;shadow=0;comic=0;labelBackgroundColor=none;strokeWidth=1;fontFamily=Verdana;fontSize=12;align=center;arcSize=50;" parent="1c1d494c118603dd-2" vertex="1">
          <mxGeometry x="112.5" y="100" width="125" height="30" as="geometry" />
        </mxCell>
        <mxCell id="1c1d494c118603dd-3" value="Сервер" style="swimlane;html=1;startSize=20;" parent="1c1d494c118603dd-1" vertex="1">
          <mxGeometry x="310" y="20" width="250" height="440" as="geometry" />
        </mxCell>
        <mxCell id="hFCzdbqGhVaaB0-jaRCJ-1" value="Нормализация данных" style="rounded=1;whiteSpace=wrap;html=1;shadow=0;comic=0;labelBackgroundColor=none;strokeWidth=1;fontFamily=Verdana;fontSize=12;align=center;arcSize=50;" parent="1c1d494c118603dd-3" vertex="1">
          <mxGeometry x="62.5" y="160" width="125" height="30" as="geometry" />
        </mxCell>
        <mxCell id="hFCzdbqGhVaaB0-jaRCJ-3" value="Оповестить всех пользователей" style="rounded=1;whiteSpace=wrap;html=1;shadow=0;comic=0;labelBackgroundColor=none;strokeWidth=1;fontFamily=Verdana;fontSize=12;align=center;arcSize=50;" parent="1c1d494c118603dd-3" vertex="1">
          <mxGeometry x="62.5" y="230" width="125" height="30" as="geometry" />
        </mxCell>
        <mxCell id="1c1d494c118603dd-4" value="БД" style="swimlane;html=1;startSize=20;" parent="1c1d494c118603dd-1" vertex="1">
          <mxGeometry x="560" y="20" width="250" height="440" as="geometry" />
        </mxCell>
        <mxCell id="hFCzdbqGhVaaB0-jaRCJ-2" value="Запись данных в бд" style="rounded=1;whiteSpace=wrap;html=1;shadow=0;comic=0;labelBackgroundColor=none;strokeWidth=1;fontFamily=Verdana;fontSize=12;align=center;arcSize=50;" parent="1c1d494c118603dd-4" vertex="1">
          <mxGeometry x="80" y="160" width="125" height="30" as="geometry" />
        </mxCell>
        <mxCell id="hFCzdbqGhVaaB0-jaRCJ-13" style="edgeStyle=orthogonalEdgeStyle;rounded=0;orthogonalLoop=1;jettySize=auto;html=1;entryX=0;entryY=0.5;entryDx=0;entryDy=0;" parent="1c1d494c118603dd-1" source="5yDm0B6Qs0zUq6zuKv2j-11" target="hFCzdbqGhVaaB0-jaRCJ-1" edge="1">
          <mxGeometry relative="1" as="geometry" />
        </mxCell>
        <mxCell id="hFCzdbqGhVaaB0-jaRCJ-14" style="edgeStyle=orthogonalEdgeStyle;rounded=0;orthogonalLoop=1;jettySize=auto;html=1;" parent="1c1d494c118603dd-1" source="hFCzdbqGhVaaB0-jaRCJ-1" target="hFCzdbqGhVaaB0-jaRCJ-2" edge="1">
          <mxGeometry relative="1" as="geometry" />
        </mxCell>
        <mxCell id="hFCzdbqGhVaaB0-jaRCJ-16" style="edgeStyle=orthogonalEdgeStyle;rounded=0;orthogonalLoop=1;jettySize=auto;html=1;entryX=1;entryY=0.5;entryDx=0;entryDy=0;" parent="1c1d494c118603dd-1" source="hFCzdbqGhVaaB0-jaRCJ-3" target="hFCzdbqGhVaaB0-jaRCJ-4" edge="1">
          <mxGeometry relative="1" as="geometry" />
        </mxCell>
        <mxCell id="hFCzdbqGhVaaB0-jaRCJ-18" style="edgeStyle=orthogonalEdgeStyle;rounded=0;orthogonalLoop=1;jettySize=auto;html=1;entryX=1;entryY=0.5;entryDx=0;entryDy=0;" parent="1c1d494c118603dd-1" source="hFCzdbqGhVaaB0-jaRCJ-2" target="hFCzdbqGhVaaB0-jaRCJ-3" edge="1">
          <mxGeometry relative="1" as="geometry">
            <Array as="points">
              <mxPoint x="700" y="265" />
            </Array>
          </mxGeometry>
        </mxCell>
      </root>
    </mxGraphModel>
  </diagram>
</mxfile>
